<?xml version="1.0" standalone="no"?>
<!DOCTYPE svg PUBLIC "-//W3C//DTD SVG 20010904//EN"
 "http://www.w3.org/TR/2001/REC-SVG-20010904/DTD/svg10.dtd">
<svg version="1.0" xmlns="http://www.w3.org/2000/svg"
 width="6316.000000pt" height="1730.000000pt" viewBox="0 0 6316.000000 1730.000000"
 preserveAspectRatio="xMidYMid meet">

<g transform="translate(0.000000,1730.000000) scale(0.100000,-0.100000)"
fill="#000000" stroke="none">
<path d="M0 8655 l0 -8645 31580 0 31580 0 0 8645 0 8645 -31580 0 -31580 0 0
-8645z m45100 5782 c183 -47 340 -139 471 -274 128 -132 209 -275 257 -453 33
-126 37 -342 8 -465 -88 -379 -364 -663 -741 -761 -86 -23 -121 -26 -245 -26
-124 0 -159 3 -245 26 -182 47 -335 135 -466 265 -273 273 -365 663 -243 1030
55 166 138 295 265 416 201 189 441 279 719 271 90 -3 152 -11 220 -29z
m-39420 -992 c501 -82 876 -471 946 -984 20 -147 10 -286 -30 -437 -162 -602
-784 -961 -1392 -803 -306 79 -580 301 -722 584 -92 183 -127 346 -119 560 8
227 62 399 187 587 138 210 349 371 594 453 161 54 357 69 536 40z m3747 0
c650 -123 1063 -778 894 -1416 -133 -501 -587 -849 -1106 -849 -750 0 -1293
708 -1104 1438 107 411 461 742 885 826 96 19 332 20 431 1z m3688 0 c414 -66
756 -353 894 -749 43 -121 61 -236 61 -379 0 -257 -73 -475 -229 -685 -160
-214 -396 -364 -661 -423 -492 -107 -1000 122 -1243 561 -96 173 -139 345
-138 550 0 244 60 441 195 644 64 96 212 242 313 309 233 154 528 217 808 172z
m29485 -3335 l0 -3350 -810 0 -810 0 0 3350 0 3350 810 0 810 0 0 -3350z
m3058 -772 l-3 -2573 -807 -3 -808 -2 0 2575 0 2575 810 0 810 0 -2 -2572z
m-26148 2547 c443 -55 865 -217 1207 -462 l73 -52 0 189 0 190 665 0 665 0 0
-2495 0 -2495 -665 0 -665 0 0 185 0 184 -73 -52 c-345 -248 -766 -408 -1218
-463 -201 -25 -553 -15 -749 19 -372 66 -701 195 -1005 395 -648 424 -1072
1090 -1181 1857 -26 182 -26 548 0 730 82 578 345 1103 756 1515 307 306 709
545 1120 665 166 48 300 74 505 98 91 11 452 6 565 -8z m6829 0 c423 -53 805
-194 1158 -430 l123 -83 0 194 0 194 665 0 665 0 -3 -2627 c-2 -2432 -4 -2636
-20 -2733 -31 -188 -58 -302 -112 -467 -268 -817 -930 -1460 -1758 -1709 -418
-125 -906 -143 -1337 -48 -878 194 -1606 832 -1919 1683 -23 61 -41 113 -41
116 0 3 385 5 856 5 l856 0 74 -68 c124 -114 288 -201 484 -255 64 -17 104
-21 265 -21 175 0 198 2 288 26 314 86 581 300 727 584 45 87 92 224 111 324
14 74 16 313 3 377 l-9 42 -90 -51 c-275 -157 -605 -268 -950 -320 -139 -20
-600 -18 -739 5 -491 79 -905 260 -1286 564 -109 87 -306 284 -393 393 -328
412 -518 872 -577 1395 -15 132 -12 442 5 586 69 596 332 1137 759 1565 422
421 955 682 1546 758 148 19 497 20 649 1z m7089 -794 c2 -762 1 -803 -15
-798 -10 3 -56 19 -103 36 -327 116 -697 67 -1005 -133 -92 -60 -271 -247
-328 -342 -95 -160 -147 -313 -167 -489 -6 -56 -10 -567 -10 -1348 l0 -1257
-802 2 -803 3 -3 2493 -2 2492 670 0 670 0 0 -216 0 -216 48 36 c324 246 698
417 1082 495 188 39 304 49 540 47 l225 -1 3 -804z m3963 794 c600 -70 1134
-329 1564 -760 272 -271 460 -556 598 -905 186 -467 231 -1010 127 -1514 -138
-674 -548 -1278 -1125 -1661 -230 -153 -417 -243 -671 -324 -390 -125 -842
-156 -1259 -86 -803 136 -1517 659 -1896 1390 -147 283 -229 540 -281 885 -18
116 -17 566 1 685 83 551 283 993 635 1401 95 110 135 150 261 260 406 353
903 570 1445 633 126 14 464 12 601 -4z m12853 -10 c535 -81 1036 -384 1370
-830 233 -310 380 -693 415 -1085 7 -74 11 -660 11 -1657 l0 -1543 -810 0
-809 0 -4 1643 c-3 1628 -3 1643 -23 1712 -51 169 -116 284 -226 394 -334 335
-862 335 -1196 0 -109 -109 -179 -230 -225 -389 l-22 -75 -3 -1642 -2 -1643
-810 0 -810 0 0 2495 0 2495 665 0 665 0 0 -215 c0 -118 3 -215 7 -215 4 0 32
20 62 44 67 52 256 176 366 239 218 125 509 222 800 267 154 23 440 26 579 5z
m4922 -1023 c303 -502 555 -914 560 -915 8 -2 172 267 910 1491 l207 342 808
0 c445 0 809 -2 809 -5 0 -2 -354 -590 -786 -1306 -507 -840 -783 -1307 -779
-1317 3 -9 323 -541 710 -1182 387 -641 707 -1174 711 -1183 6 -16 -49 -17
-800 -17 l-806 0 -31 48 c-16 26 -233 383 -481 794 l-451 748 -116 -193 c-64
-105 -280 -463 -480 -794 l-364 -603 -808 0 c-445 0 -809 2 -809 5 0 3 319
534 710 1180 l709 1175 -566 938 c-311 515 -665 1101 -786 1302 -121 201 -227
375 -235 388 l-14 22 813 -2 814 -3 551 -913z m-47650 -473 c625 -87 1064
-674 970 -1299 -57 -373 -290 -692 -631 -863 -204 -102 -496 -138 -725 -89
-677 142 -1073 825 -858 1482 91 280 326 545 595 671 199 93 431 128 649 98z
m3740 -4 c162 -26 297 -77 427 -161 275 -178 455 -443 518 -764 19 -99 17
-328 -5 -430 -49 -228 -151 -417 -315 -580 -448 -447 -1162 -447 -1612 0 -223
221 -333 488 -333 805 0 150 11 222 51 350 110 349 403 639 754 746 158 48
350 61 515 34z m-5652 -3065 c641 -62 1106 -641 1026 -1276 -65 -521 -465
-923 -988 -994 -334 -46 -680 67 -930 304 -352 332 -454 837 -262 1288 95 221
277 422 495 543 122 69 317 126 465 138 85 7 95 6 194 -3z m7440 0 c374 -36
707 -254 891 -584 177 -318 189 -712 30 -1043 -59 -125 -113 -201 -215 -307
-440 -457 -1172 -461 -1624 -10 -437 438 -446 1142 -19 1595 184 195 444 323
708 348 113 12 119 12 229 1z m-3564 -29 c225 -60 390 -152 540 -301 401 -402
446 -1038 104 -1492 -210 -281 -534 -445 -884 -449 -69 -1 -150 1 -180 5 -400
54 -751 328 -901 703 -63 158 -74 221 -73 428 0 176 2 198 27 290 101 367 373
659 732 785 137 48 227 60 405 55 112 -3 176 -9 230 -24z m31628 -1079 c-7
-10 -87 -109 -178 -220 l-164 -202 -84 0 c-46 0 -82 4 -80 8 2 5 72 104 157
220 l154 212 104 0 c99 0 103 -1 91 -18z m-10418 -514 c656 -938 906 -1292
915 -1295 7 -2 9 308 7 872 l-2 875 100 0 100 0 0 -1050 0 -1050 -98 0 c-90 0
-98 2 -111 23 -8 12 -109 157 -226 322 -116 165 -386 549 -600 853 -214 303
-392 552 -397 552 -4 0 -8 -394 -8 -875 l0 -875 -95 0 -95 0 0 1050 0 1050 98
-1 97 0 315 -451z m15217 -595 l391 -1048 -100 -3 c-55 -1 -102 -1 -104 1 -3
2 -54 143 -116 313 -61 170 -118 315 -126 322 -12 9 -113 12 -426 12 -226 0
-420 -3 -431 -6 -17 -4 -42 -66 -135 -324 l-115 -320 -102 0 c-57 0 -103 4
-103 8 0 4 173 471 385 1037 212 567 387 1036 390 1043 3 8 33 12 102 12 l98
0 392 -1047z m10663 -3 l0 -1050 -90 0 -90 0 -2 163 -3 162 -35 -64 c-67 -124
-203 -229 -346 -266 -68 -18 -210 -20 -286 -4 -93 19 -212 83 -282 152 -141
140 -214 331 -222 582 -7 273 64 484 215 635 124 124 236 169 422 171 146 1
258 -36 367 -120 40 -31 118 -132 141 -181 15 -33 16 -8 19 418 l2 452 95 0
95 0 0 -1050z m-19770 1005 c36 -19 60 -62 60 -110 0 -116 -138 -167 -217 -81
-96 105 30 257 157 191z m2614 -4 c38 -26 55 -57 56 -104 0 -53 -22 -91 -66
-112 -84 -40 -184 17 -184 106 0 103 110 165 194 110z m-4834 -351 l0 -190
150 0 150 0 0 -81 0 -82 -137 7 c-76 3 -144 3 -151 -2 -10 -7 -12 -116 -10
-538 l3 -529 23 -41 c36 -62 71 -78 182 -84 l95 -5 3 -76 3 -76 -79 -7 c-208
-18 -341 40 -394 172 -23 57 -23 61 -26 620 l-3 562 -108 0 c-125 0 -121 -3
-121 96 l0 64 115 0 115 0 0 190 0 190 95 0 95 0 0 -190z m1548 -269 l3 -93
-28 7 c-43 10 -182 7 -222 -6 -110 -36 -201 -143 -230 -269 -7 -28 -11 -243
-11 -557 l0 -513 -95 0 -95 0 0 755 0 755 90 0 90 0 0 -132 0 -132 34 69 c38
81 112 155 184 187 49 22 180 37 242 28 l35 -5 3 -94z m2132 84 c124 -32 237
-99 309 -182 52 -60 119 -194 127 -255 l7 -47 -59 0 c-82 0 -125 9 -131 28
-73 216 -268 336 -494 303 -236 -34 -382 -212 -418 -509 -6 -50 -9 -106 -7
-125 3 -18 7 -62 11 -97 14 -144 88 -299 178 -376 101 -86 241 -126 375 -106
170 25 291 119 342 264 l18 52 97 3 c89 3 96 1 92 -15 -3 -10 -12 -43 -21 -73
-32 -114 -133 -243 -240 -309 -99 -60 -186 -83 -331 -88 -153 -6 -229 8 -343
63 -91 44 -202 146 -255 235 -118 200 -148 533 -71 781 79 252 262 419 505
462 85 14 235 10 309 -9z m2658 -13 c226 -72 390 -273 443 -547 22 -112 17
-332 -10 -440 -52 -217 -174 -381 -342 -464 -200 -99 -456 -96 -652 6 -239
125 -375 423 -352 772 27 412 262 678 620 700 121 7 209 -1 293 -27z m1865 11
c166 -49 280 -159 330 -318 31 -99 37 -206 37 -701 l0 -494 -100 0 -100 0 1
518 c0 337 -4 534 -11 565 -33 151 -145 251 -308 278 -232 38 -437 -94 -497
-322 -12 -43 -15 -152 -15 -546 l0 -493 -95 0 -95 0 0 755 0 755 90 0 90 0 0
-137 0 -138 31 54 c94 164 286 258 502 245 48 -3 111 -12 140 -21z m6300 1
c204 -53 342 -201 367 -394 5 -41 10 -310 10 -597 l0 -523 -95 0 -95 0 3 140
c1 77 -1 140 -4 140 -4 0 -13 -15 -20 -32 -18 -44 -133 -158 -191 -190 -98
-54 -157 -70 -278 -75 -158 -7 -273 25 -378 105 -146 111 -193 372 -96 537 75
128 253 214 474 230 47 3 112 8 145 10 33 3 112 7 175 11 63 3 126 7 140 9
l25 2 -1 109 c-1 126 -22 194 -78 260 -65 76 -202 121 -331 111 -184 -16 -292
-91 -346 -239 l-22 -58 -88 0 c-87 0 -89 0 -89 24 0 41 38 149 69 198 82 129
226 212 411 239 75 11 219 2 293 -17z m1863 -7 c159 -59 260 -161 307 -312 30
-94 36 -211 34 -700 l-2 -490 -97 -3 -98 -3 0 529 c0 569 0 574 -53 665 -85
145 -275 208 -472 155 -138 -36 -249 -155 -290 -309 -12 -43 -15 -152 -15
-546 l0 -493 -95 0 -95 0 0 755 0 755 90 0 90 0 0 -137 0 -138 25 44 c79 137
216 229 374 249 75 10 247 -2 297 -21z m3340 8 c208 -49 347 -198 374 -398 6
-46 10 -297 10 -598 l0 -519 -89 0 -90 0 -6 44 c-4 24 -5 87 -3 140 1 53 0 96
-3 96 -4 0 -13 -15 -20 -32 -7 -18 -43 -63 -80 -100 -74 -75 -191 -140 -288
-158 -135 -25 -291 -6 -402 50 -159 81 -248 259 -220 440 33 212 186 332 472
370 41 5 166 14 279 21 113 6 216 12 230 14 25 2 25 2 24 106 -1 117 -18 184
-64 247 -102 141 -388 173 -562 63 -55 -35 -111 -107 -128 -166 -19 -62 -24
-65 -116 -65 -82 0 -84 1 -84 24 0 41 38 149 69 198 81 127 220 209 406 239
67 11 215 3 291 -16z m3696 -1 c211 -54 345 -202 368 -404 5 -47 10 -316 10
-598 l0 -513 -92 3 -93 3 0 138 c0 75 -3 137 -6 137 -4 0 -13 -15 -20 -32 -7
-18 -45 -65 -84 -103 -115 -115 -242 -165 -416 -165 -264 0 -449 136 -489 359
-43 238 96 427 360 490 94 23 161 29 490 47 69 4 132 8 140 9 26 4 19 205 -10
279 -65 170 -285 249 -505 182 -107 -32 -200 -121 -226 -214 -15 -53 -36 -63
-131 -61 -80 2 -81 5 -48 110 58 191 225 317 454 347 86 10 230 4 298 -14z
m-25332 -508 c0 -296 4 -525 10 -556 24 -124 94 -220 199 -269 51 -24 67 -26
181 -26 141 0 172 8 258 65 73 49 127 120 160 212 l27 73 3 503 3 502 95 0 94
0 0 -755 0 -755 -90 0 -90 0 0 141 0 141 -50 -75 c-102 -152 -253 -227 -460
-227 -162 0 -286 45 -380 140 -67 67 -104 134 -130 236 -19 72 -20 112 -20
616 l0 538 95 0 95 0 0 -504z m4180 -251 l0 -755 -95 0 -95 0 0 755 0 755 95
0 95 0 0 -755z m2610 0 l0 -755 -95 0 -95 0 0 755 0 755 95 0 95 0 0 -755z
m7518 98 c127 -362 233 -651 236 -643 3 8 96 272 206 585 110 314 212 603 227
643 l26 72 98 0 c55 0 99 -1 99 -2 0 -2 -126 -340 -279 -753 l-279 -750 -103
-3 -104 -2 -154 417 c-85 230 -210 567 -278 748 -67 182 -123 333 -123 338 0
4 44 7 98 7 l99 0 231 -657z m6012 587 l0 -70 -451 -602 -452 -603 452 -3 451
-2 0 -80 0 -80 -560 0 -560 0 0 73 0 73 152 205 c84 112 286 383 450 602 164
218 294 397 290 397 -4 0 -206 1 -449 2 l-443 3 0 77 0 78 560 0 560 0 0 -70z"/>
<path d="M19002 10376 c-251 -48 -458 -160 -633 -342 -177 -184 -282 -413
-310 -674 -22 -199 15 -408 106 -597 58 -123 113 -202 204 -297 238 -248 540
-369 880 -353 157 7 287 40 427 106 144 69 215 120 329 236 149 152 237 306
297 522 19 68 22 103 22 273 0 170 -3 205 -22 273 -60 216 -148 370 -297 522
-114 116 -185 167 -329 236 -154 73 -269 100 -451 105 -102 2 -173 -1 -223
-10z"/>
<path d="M25825 10374 c-416 -74 -758 -370 -888 -769 -195 -594 128 -1236 721
-1435 663 -222 1368 200 1486 889 85 494 -168 989 -619 1213 -208 104 -474
142 -700 102z"/>
<path d="M36892 10375 c-666 -121 -1082 -768 -912 -1417 126 -482 554 -825
1055 -845 576 -23 1063 370 1170 942 25 131 17 345 -18 478 -31 116 -108 283
-173 374 -178 249 -451 420 -748 468 -110 18 -275 18 -374 0z"/>
<path d="M45397 5848 c-49 -130 -357 -983 -357 -990 0 -4 171 -8 381 -8 352 0
381 1 375 17 -11 27 -332 913 -352 971 -10 28 -22 52 -25 52 -3 0 -14 -19 -22
-42z"/>
<path d="M55785 5396 c-136 -33 -240 -121 -305 -258 -51 -109 -71 -212 -69
-356 2 -141 19 -223 70 -330 90 -189 254 -282 458 -261 206 20 357 167 417
404 24 95 24 303 0 400 -72 296 -312 464 -571 401z"/>
<path d="M40610 5403 c-199 -33 -343 -184 -395 -413 -25 -109 -23 -301 4 -405
61 -232 204 -371 406 -394 271 -29 461 111 536 394 28 104 29 295 4 405 -25
110 -75 211 -136 275 -102 108 -270 163 -419 138z"/>
<path d="M49240 4775 c-8 -2 -103 -9 -210 -15 -340 -20 -410 -36 -498 -115
-59 -53 -84 -109 -84 -186 0 -312 500 -382 728 -102 65 80 86 145 92 296 2 71
1 126 -4 126 -5 -1 -16 -3 -24 -4z"/>
<path d="M54445 4774 c-11 -1 -105 -8 -210 -14 -328 -20 -412 -39 -493 -114
-57 -52 -84 -111 -84 -185 0 -130 84 -228 227 -266 260 -67 538 96 585 344 12
62 14 228 3 233 -5 2 -17 3 -28 2z"/>
<path d="M58117 4774 c-2 -1 -135 -10 -292 -19 -222 -13 -314 -39 -393 -110
-59 -53 -83 -107 -83 -186 -2 -312 499 -383 727 -102 65 80 86 145 92 295 l5
128 -27 -2 c-15 -1 -28 -3 -29 -4z"/>
</g>
</svg>
